<svg xmlns="http://www.w3.org/2000/svg" width="32" height="32" viewBox="0 0 32 32" fill="none">
  <path d="M20.6766 27.2563C20.544 27.2195 20.414 27.1775 20.284 27.1303L19.9991 27.4152C20.1251 27.4651 20.2525 27.5097 20.3812 27.5517C22.3678 28.1846 24.6328 27.7159 26.2071 26.1429C27.7801 24.5698 28.2489 22.3049 27.616 20.3169C27.5753 20.1882 27.5307 20.0609 27.4794 19.9348C27.3495 19.6092 27.188 19.2941 26.9962 18.9908C26.9293 18.8857 26.861 18.782 26.7875 18.6809C26.6142 18.4432 26.4211 18.2174 26.2071 18.0034L26.1231 17.9193L25.8631 17.6593L25.1501 16.9464L24.8901 16.6864L24.1942 15.9905L23.9343 15.7305L23.2029 14.9991L22.9429 14.7391L17.2693 9.06552L17.0093 8.80554L16.7493 9.06552L17.0093 9.3255L22.6829 14.9991L22.9429 15.2591L23.6743 15.9905L23.9343 16.2504L24.6302 16.9464L24.8901 17.2063L25.6031 17.9193L25.8631 18.1793L25.9471 18.2633C26.1612 18.4774 26.3529 18.7058 26.5236 18.9448C26.5971 19.0472 26.6654 19.1509 26.7297 19.2573C26.9188 19.5645 27.0737 19.8876 27.1945 20.2198C27.2418 20.3497 27.2838 20.4797 27.3206 20.6124C27.8287 22.427 27.3718 24.4582 25.9471 25.8842C24.5225 27.3088 22.4912 27.7671 20.6753 27.2576L20.6766 27.2563Z" fill="#181817"/>
  <path d="M30.4837 16.8675C30.2998 16.5734 30.0989 16.2871 29.881 16.0101C29.8035 15.9116 29.7247 15.8144 29.6433 15.7186C29.4687 15.5138 29.2849 15.3129 29.0918 15.1185L28.9435 14.9702L28.6822 14.7089L27.9587 13.9854L27.6948 13.7215L26.9844 13.0111L26.7179 12.7446L25.9629 11.9896L25.6911 11.7178L20.2932 6.31989L20.0214 6.0481C19.9111 6.1085 19.8034 6.17283 19.6971 6.24242L19.9623 6.50766L25.502 12.0474L25.7672 12.3126L26.5091 13.0544L26.7717 13.3171L27.4742 14.0195L27.7355 14.2808L28.4537 14.9991L28.715 15.2603L28.8306 15.3759C29.0341 15.5794 29.2258 15.7895 29.407 16.0061C29.4871 16.102 29.5659 16.1992 29.642 16.2976C29.856 16.5747 30.0517 16.8622 30.2316 17.1564C30.2985 17.2667 30.3629 17.377 30.4246 17.4886C32.4296 21.1073 31.8991 25.7646 28.8319 28.8319C25.7646 31.8991 21.1073 32.4296 17.4886 30.4246C17.377 30.3629 17.2667 30.2972 17.1564 30.2316C17.0605 30.3182 16.9633 30.4009 16.8649 30.4837C16.9752 30.5519 17.0868 30.6189 17.1984 30.6833C20.972 32.8393 25.8736 32.3101 29.0905 29.0932C32.3075 25.8762 32.8379 20.9734 30.6806 17.201C30.6163 17.0894 30.5506 16.9778 30.481 16.8675H30.4837Z" fill="#181817"/>
  <path d="M18.1779 29.2364L17.9088 29.5056C18.0204 29.5686 18.1333 29.629 18.2462 29.6868C21.4395 31.3097 25.4521 30.7884 28.1189 28.1217C30.7857 25.4549 31.307 21.4423 29.684 18.249C29.6263 18.1347 29.5659 18.0231 29.5028 17.9115C29.3348 17.6148 29.147 17.3259 28.9409 17.0475C28.8673 16.949 28.7925 16.8519 28.715 16.7547C28.5299 16.5263 28.3316 16.3057 28.1189 16.0929L28.0349 16.0089L27.7749 15.7489L27.0619 15.036L26.8019 14.776L26.106 14.0801L25.846 13.8201L25.1147 13.0887L24.8547 12.8287L19.1811 7.15512L18.9211 6.89514L18.6611 7.15512L18.9211 7.4151L24.5947 13.0887L24.8547 13.3487L25.5861 14.0801L25.846 14.34L26.542 15.036L26.8019 15.2959L27.5149 16.0089L27.7749 16.2689L27.8589 16.3529C28.0716 16.5656 28.2699 16.7875 28.4537 17.016C28.5312 17.1132 28.606 17.2103 28.6796 17.3101C28.8844 17.5911 29.0695 17.8826 29.235 18.182C29.2967 18.2949 29.3558 18.4078 29.4122 18.5234C30.8999 21.5617 30.3826 25.342 27.8602 27.8643C25.3379 30.3866 21.5577 30.904 18.5193 29.4163C18.4051 29.3599 18.2908 29.3008 18.1779 29.2391V29.2364Z" fill="#181817"/>
  <path d="M19.1995 28.2147L18.925 28.4891C19.0419 28.5469 19.1601 28.602 19.2796 28.6533C21.8833 29.7733 25.0228 29.2717 27.146 27.1485C29.2691 25.0253 29.7707 21.8859 28.6507 19.2821C28.5995 19.1626 28.5443 19.0445 28.4866 18.9276C28.3329 18.619 28.157 18.3197 27.9561 18.0321C27.8852 17.931 27.8117 17.8312 27.7355 17.7341C27.5556 17.5017 27.3587 17.2784 27.146 17.0657L27.0619 16.9817L26.8019 16.7217L26.089 16.0087L25.829 15.7488L25.1331 15.0528L24.8731 14.7929L24.1417 14.0615L23.8818 13.8015L18.2081 8.1279L17.9481 7.86792L17.6882 8.1279L17.9481 8.38788L23.6218 14.0615L23.8818 14.3215L24.6131 15.0528L24.8731 15.3128L25.569 16.0087L25.829 16.2687L26.542 16.9817L26.8019 17.2417L26.886 17.3257C27.0987 17.5384 27.2943 17.7629 27.4742 17.9967C27.5504 18.0951 27.6226 18.1963 27.6922 18.2974C27.8905 18.5888 28.0638 18.8908 28.2121 19.2033C28.2686 19.3228 28.3211 19.4423 28.371 19.5631C29.3597 22.0054 28.8647 24.9124 26.8873 26.8899C24.9099 28.8673 22.0028 29.3623 19.5606 28.3736C19.4398 28.325 19.319 28.2712 19.2008 28.2147H19.1995Z" fill="#181817"/>
  <path d="M11.421 4.67328C11.5523 4.71136 11.681 4.756 11.8096 4.80327L12.0933 4.51966C11.9685 4.46845 11.8412 4.42249 11.7138 4.38047C9.71536 3.72396 7.42542 4.18746 5.83928 5.7736C4.25313 7.35975 3.78963 9.64968 4.44615 11.6481C4.48817 11.7755 4.53412 11.9028 4.58533 12.0276C4.71795 12.3506 4.88076 12.6644 5.07509 12.9651C5.14206 13.0688 5.21296 13.1712 5.2878 13.2723C5.45325 13.4956 5.63707 13.7109 5.84059 13.9131L5.95745 14.03L6.21743 14.2899L6.93041 15.0029L7.19039 15.2629L7.92044 15.993L8.18042 16.2529L8.87633 16.9488L9.13631 17.2088L14.8099 22.8824L15.0699 23.1424L15.3299 22.8824L15.0699 22.6225L9.39629 16.9488L9.13631 16.6889L8.4404 15.993L8.18042 15.733L7.45037 15.0029L7.19039 14.7429L6.47741 14.03L6.21743 13.77L6.10057 13.6531C5.89705 13.4496 5.71454 13.2343 5.55041 13.0097C5.47688 12.9086 5.40729 12.8049 5.34164 12.6999C5.15125 12.3952 4.99368 12.0749 4.87026 11.7453C4.82168 11.6166 4.77835 11.4879 4.74027 11.3566C4.20849 9.52888 4.66149 7.47267 6.10057 6.03358C7.53966 4.5945 9.59587 4.1415 11.4236 4.67328H11.421Z" fill="#181817"/>
  <path d="M1.52073 15.1566C1.70587 15.4494 1.90808 15.7344 2.12735 16.0101C2.20482 16.1073 2.2836 16.2044 2.36501 16.3003C2.53046 16.4933 2.70378 16.6811 2.8876 16.8636L3.06749 17.0435L3.32878 17.3047L4.05226 18.0282L4.31618 18.2922L5.06199 19.038L5.32853 19.3045L6.04939 20.0254L6.32119 20.2972L11.7191 25.695L11.9909 25.9668C12.1012 25.9064 12.2088 25.8421 12.3152 25.7725L12.05 25.5073L6.51026 19.9676L6.24503 19.7024L5.5373 18.9946L5.2747 18.732L4.53677 17.9941L4.27548 17.7328L3.55725 17.0146L3.29596 16.7533L3.14889 16.6062C2.95719 16.4145 2.77468 16.2149 2.60267 16.0114C2.52258 15.9156 2.4438 15.8197 2.36764 15.7212C2.1523 15.4455 1.95535 15.1606 1.77415 14.8664C1.70718 14.7575 1.64153 14.6472 1.57982 14.5356C-0.452759 10.9116 0.0698286 6.2293 3.14889 3.15024C6.22796 0.0711709 10.9102 -0.451416 14.5342 1.58116C14.6458 1.64419 14.7561 1.70852 14.8651 1.77549C14.961 1.69014 15.0581 1.60611 15.1566 1.5247C15.0476 1.45511 14.936 1.38815 14.8244 1.32381C11.0455 -0.861083 6.11898 -0.338495 2.88891 2.89026C-0.339838 6.11901 -0.862426 11.0468 1.32246 14.8257C1.3868 14.9373 1.45377 15.0476 1.52336 15.1579L1.52073 15.1566Z" fill="#181817"/>
  <path d="M13.8423 2.76946L14.1115 2.50029C14.0012 2.43727 13.8883 2.37555 13.7753 2.31778C10.5742 0.668608 6.53789 1.182 3.8593 3.86191C1.1807 6.5405 0.665996 10.5768 2.31517 13.7779C2.37294 13.8909 2.43465 14.0025 2.49768 14.1141C2.66706 14.4095 2.85614 14.6971 3.0636 14.9741C3.13713 15.0726 3.21328 15.1698 3.29075 15.2656C3.46801 15.4809 3.65709 15.691 3.85798 15.8919L3.97484 16.0088L4.23482 16.2688L4.9478 16.9817L5.20778 17.2417L5.93783 17.9718L6.19781 18.2318L6.89372 18.9277L7.1537 19.1876L12.8273 24.8613L13.0873 25.1212L13.3473 24.8613L13.0873 24.6013L7.41368 18.9277L7.1537 18.6677L6.45779 17.9718L6.19781 17.7118L5.46776 16.9817L5.20778 16.7218L4.4948 16.0088L4.23482 15.7488L4.11796 15.6319C3.91707 15.4311 3.72799 15.221 3.55205 15.0043C3.47458 14.9085 3.39842 14.8113 3.3262 14.7115C3.12006 14.4318 2.93229 14.143 2.76685 13.8449C2.70382 13.7333 2.64474 13.6191 2.58828 13.5048C1.07435 10.4586 1.58381 6.65605 4.11928 4.12058C6.65343 1.58642 10.4573 1.07565 13.5035 2.58958C13.6178 2.64604 13.7307 2.70644 13.8436 2.76815L13.8423 2.76946Z" fill="#181817"/>
  <path d="M12.8233 3.78973L13.0978 3.51531C12.9809 3.45622 12.864 3.40107 12.7459 3.34855C10.1329 2.20358 6.96984 2.6986 4.83353 4.83359C2.69854 6.96859 2.20352 10.133 3.34849 12.7459C3.40101 12.8641 3.45616 12.9823 3.51524 13.0978C3.67018 13.4051 3.84876 13.7018 4.05096 13.9881C4.12187 14.0892 4.19539 14.1876 4.27286 14.2848C4.44487 14.5041 4.63264 14.7155 4.83353 14.9164L4.95039 15.0332L5.21037 15.2932L5.92335 16.0062L6.18333 16.2662L6.91338 16.9962L7.17336 17.2562L7.86927 17.9521L8.12925 18.2121L13.8029 23.8857L14.0629 24.1457L14.3228 23.8857L14.0629 23.6257L8.38923 17.9521L8.12925 17.6921L7.43334 16.9962L7.17336 16.7363L6.44331 16.0062L6.18333 15.7462L5.47035 15.0332L5.21037 14.7733L5.09351 14.6564C4.8913 14.4542 4.70485 14.2428 4.53416 14.0222C4.458 13.9237 4.38447 13.8239 4.31488 13.7228C4.11399 13.434 3.93935 13.132 3.78967 12.8221C3.73321 12.7039 3.67937 12.5844 3.62948 12.4636C2.61713 10.0122 3.10426 7.08019 5.09351 5.09095C7.08276 3.1017 10.0148 2.61325 12.4662 3.62691C12.587 3.67681 12.7065 3.73064 12.8247 3.7871L12.8233 3.78973Z" fill="#181817"/>
  <path d="M17.0434 28.9434L17.306 28.6807L18.0295 27.9573L18.2934 27.6933L19.0563 26.9305L19.3228 26.6639L20.0279 25.9588L20.2997 25.687L25.6871 20.2996L25.9589 20.0278C25.8998 19.9176 25.8355 19.8086 25.7659 19.7022L25.4993 19.9688L19.9675 25.5006L19.701 25.7671L19.009 26.4591L18.7451 26.723L17.9914 27.4767L17.7301 27.738L17.0119 28.4562L16.7506 28.7175L16.6167 28.8514C16.4197 29.0484 16.2149 29.2348 16.0061 29.4108C15.9102 29.4909 15.8144 29.5697 15.7159 29.6458C15.4389 29.8612 15.1526 30.0568 14.8585 30.2367C14.7482 30.3037 14.6379 30.3693 14.5263 30.431C10.905 32.4505 6.23449 31.9239 3.16067 28.8501C0.0881712 25.7776 -0.439667 21.1072 1.57847 17.4858C1.64018 17.3742 1.70583 17.2639 1.7728 17.1549C1.68614 17.0591 1.60341 16.9619 1.52069 16.8647C1.4511 16.975 1.38545 17.0853 1.32111 17.1983C-0.848022 20.9745 -0.321495 25.8879 2.90069 29.1101C6.12419 32.3336 11.0402 32.8588 14.8165 30.6871C14.9281 30.6227 15.0397 30.5558 15.1487 30.4875C15.4428 30.3023 15.7277 30.1014 16.0048 29.8822C16.1033 29.8047 16.2004 29.7259 16.295 29.6445C16.4932 29.4751 16.6862 29.2966 16.874 29.1101L17.0408 28.9434H17.0434Z" fill="#181817"/>
  <path d="M2.32169 18.2433C0.685646 21.4406 1.20298 25.465 3.87632 28.1384C6.54966 30.8117 10.5728 31.329 13.7713 29.693C13.8843 29.6352 13.9972 29.5748 14.1075 29.5105C14.4042 29.3411 14.6918 29.1533 14.9701 28.9459C15.0686 28.8723 15.1658 28.7975 15.2616 28.7187C15.4835 28.5375 15.6989 28.3432 15.905 28.137L16.0061 28.0359L16.2661 27.776L16.9791 27.063L17.2391 26.803L17.9862 26.0559L18.2462 25.7959L18.9263 25.1158L19.1863 24.8558L24.8599 19.1822L25.1199 18.9222L24.8599 18.6622L24.5999 18.9222L18.9263 24.5958L18.6663 24.8558L17.9862 25.5359L17.7262 25.7959L16.9791 26.543L16.7191 26.803L16.0061 27.516L15.7462 27.776L15.645 27.8771C15.4376 28.0845 15.2223 28.2775 14.999 28.4574C14.9032 28.5349 14.8047 28.6111 14.7062 28.6833C14.4266 28.8894 14.1351 29.0746 13.837 29.24C13.7241 29.3017 13.6112 29.3621 13.4969 29.4186C10.4546 30.9194 6.66258 30.406 4.13499 27.8771C1.60609 25.3482 1.09269 21.5574 2.59349 18.5151C2.64995 18.4009 2.70903 18.2867 2.77206 18.1751L2.50289 17.9059C2.43986 18.0175 2.37815 18.1291 2.32037 18.242L2.32169 18.2433Z" fill="#181817"/>
  <path d="M3.79358 19.1968L3.51916 18.9223C3.46007 19.0392 3.40492 19.156 3.35371 19.2755C2.22057 21.8832 2.71952 25.0358 4.84926 27.1656C6.979 29.2953 10.1303 29.7929 12.7393 28.6611C12.8588 28.6099 12.9756 28.5534 13.0925 28.4957C13.3997 28.342 13.6991 28.1635 13.9854 27.9626C14.0865 27.8917 14.1849 27.8181 14.2834 27.742C14.5093 27.566 14.7259 27.3743 14.9334 27.1669L15.0345 27.0658L15.2945 26.8058L16.0074 26.0928L16.2674 25.8328L17.0145 25.0857L17.2745 24.8257L17.9547 24.1456L18.2146 23.8856L23.8883 18.212L24.1482 17.952L23.8883 17.692L23.6283 17.952L17.9547 23.6256L17.6947 23.8856L17.0145 24.5658L16.7545 24.8257L16.0074 25.5728L15.7474 25.8328L15.0345 26.5458L14.7745 26.8058L14.6734 26.9069C14.4659 27.1144 14.248 27.3061 14.0208 27.4807C13.9223 27.5568 13.8225 27.6291 13.7201 27.6987C13.4299 27.8982 13.1279 28.0729 12.8168 28.2212C12.6986 28.2777 12.5791 28.3315 12.457 28.3814C10.0095 29.382 7.09061 28.8909 5.10662 26.9069C3.12262 24.9229 2.63155 22.004 3.63208 19.5565C3.68197 19.4357 3.7345 19.3162 3.79227 19.1968H3.79358Z" fill="#181817"/>
  <path d="M4.8597 20.263L4.57477 19.9781C4.52356 20.1041 4.47892 20.2315 4.43822 20.3602C3.79352 22.3533 4.25964 24.6301 5.83922 26.2097C7.41881 27.7893 9.69692 28.2554 11.6888 27.6107C11.8175 27.5687 11.9448 27.5241 12.0709 27.4742C12.3952 27.3429 12.7103 27.1801 13.011 26.987C13.1147 26.9201 13.2185 26.8505 13.3196 26.777C13.5494 26.6076 13.77 26.4185 13.9787 26.2097L14.0798 26.1086L14.3398 25.8486L15.0528 25.1357L15.3128 24.8757L16.0599 24.1286L16.3199 23.8686L17 23.1884L17.26 22.9284L22.9336 17.2548L23.1936 16.9948L22.9336 16.7349L22.6736 16.9948L17 22.6685L16.74 22.9284L16.0599 23.6086L15.7999 23.8686L15.0528 24.6157L14.7928 24.8757L14.0798 25.5887L13.8198 25.8486L13.7187 25.9497C13.51 26.1585 13.2881 26.345 13.0557 26.513C12.9532 26.5866 12.8495 26.6548 12.7445 26.7205C12.4385 26.9096 12.1168 27.0658 11.786 27.1892C11.6573 27.2365 11.5273 27.2798 11.396 27.3179C9.57481 27.8379 7.53041 27.3823 6.09921 25.9511C4.66668 24.5185 4.21237 22.4755 4.73234 20.6543C4.77041 20.523 4.81243 20.393 4.86101 20.2643L4.8597 20.263Z" fill="#181817"/>
  <path d="M14.9715 3.06748L14.7102 3.32877L13.988 4.05094L13.7254 4.31355L13.0321 5.00683L12.7656 5.27337L11.9948 6.04412L11.7243 6.31461L6.31461 11.7243L6.04413 11.9948C6.10453 12.1038 6.17018 12.2114 6.24108 12.3178L6.50632 12.0526L12.0526 6.50631L12.3178 6.24108L13.0767 5.48215L13.3393 5.21954L14.0261 4.53282L14.2874 4.27153L15.0056 3.5533L15.2656 3.29332L15.3956 3.16333C15.5938 2.96506 15.7987 2.77861 16.0101 2.60135C16.1059 2.52125 16.2018 2.44247 16.3002 2.36631C16.5773 2.15229 16.8635 1.95533 17.1563 1.77545C17.2653 1.70848 17.3756 1.64283 17.4872 1.58112C21.1086 -0.437014 25.7777 0.0895126 28.8515 3.16333C31.9254 6.23714 32.4519 10.9076 30.4324 14.529C30.3707 14.6406 30.3051 14.7509 30.2381 14.8611C30.3235 14.957 30.4075 15.0542 30.4889 15.1526C30.5585 15.0423 30.6241 14.9321 30.6885 14.8204C32.8602 11.0442 32.335 6.12816 29.1115 2.90466C25.8893 -0.317527 20.976 -0.844055 17.1997 1.32508C17.0881 1.38942 16.9765 1.45507 16.8662 1.52466C16.5734 1.70848 16.2871 1.91069 16.0114 2.12866C15.9129 2.20612 15.817 2.28491 15.7212 2.36631C15.5216 2.53701 15.326 2.71558 15.1369 2.90466L14.9754 3.06616L14.9715 3.06748Z" fill="#181817"/>
  <path d="M29.6893 13.7726C31.3253 10.5754 30.808 6.55094 28.1347 3.8776C25.4613 1.20426 21.4382 0.686928 18.2396 2.32297C18.1267 2.38074 18.0138 2.44114 17.9035 2.50548C17.6068 2.67486 17.3192 2.86263 17.0408 3.07009C16.9424 3.14362 16.8452 3.21846 16.7493 3.29724C16.5274 3.47844 16.3121 3.67277 16.106 3.87891L16.0049 3.98002L15.7449 4.24L15.0319 4.95298L14.7719 5.21296L14.0931 5.8918L13.8331 6.15178L13.086 6.89889L12.826 7.15888L7.15238 12.8325L6.8924 13.0925L7.15238 13.3525L7.41236 13.0925L13.086 7.41886L13.346 7.15888L14.0931 6.41176L14.3531 6.15178L15.0319 5.47294L15.2919 5.21296L16.0049 4.49998L16.2648 4.24L16.3659 4.1389C16.5734 3.93144 16.7887 3.73842 17.012 3.55854C17.1078 3.48107 17.2063 3.40491 17.3048 3.33269C17.5844 3.12655 17.8759 2.94141 18.174 2.77597C18.2869 2.71425 18.3998 2.65385 18.5141 2.59739C21.5564 1.09659 25.3484 1.60999 27.876 4.1389C30.4049 6.6678 30.9183 10.4585 29.4175 13.5008C29.361 13.6151 29.302 13.7293 29.2389 13.8409L29.5081 14.1101C29.5711 13.9985 29.6315 13.8869 29.6906 13.7739L29.6893 13.7726Z" fill="#181817"/>
  <path d="M28.2174 12.8193L28.4918 13.0937C28.5509 12.9768 28.606 12.86 28.6572 12.7405C29.7904 10.1328 29.2914 6.98019 27.1617 4.85045C25.0319 2.72071 21.8807 2.22307 19.2717 3.3549C19.1522 3.40611 19.0353 3.46257 18.9185 3.52034C18.6112 3.67397 18.3118 3.85254 18.0256 4.05344C17.9245 4.12434 17.826 4.19787 17.7275 4.27403C17.5017 4.44997 17.285 4.64167 17.0776 4.84913L16.9765 4.95024L16.7165 5.21022L16.0035 5.9232L15.7435 6.18318L15.0647 6.86202L14.8047 7.122L14.0576 7.86911L13.7976 8.1291L8.12399 13.8027L7.86401 14.0627L8.12399 14.3227L8.38398 14.0627L14.0576 8.38908L14.3176 8.1291L15.0647 7.38198L15.3247 7.122L16.0035 6.44316L16.2635 6.18318L16.9765 5.4702L17.2365 5.21022L17.3376 5.10912C17.545 4.90166 17.763 4.70995 17.9901 4.53532C18.0886 4.45916 18.1884 4.38695 18.2908 4.31736C18.581 4.11778 18.883 3.94314 19.1942 3.79477C19.3124 3.73831 19.4318 3.68447 19.554 3.63458C22.0015 2.63404 24.9203 3.12512 26.9043 5.10912C28.8883 7.09311 29.3794 10.012 28.3789 12.4595C28.329 12.5803 28.2765 12.6998 28.2187 12.8193H28.2174Z" fill="#181817"/>
  <path d="M27.1867 11.7887L27.4716 12.0736C27.5228 11.9476 27.5674 11.8202 27.6081 11.6915C28.2528 9.69835 27.7867 7.42155 26.2071 5.84197C24.6276 4.26239 22.3494 3.79626 20.3576 4.44096C20.2289 4.48298 20.1015 4.52762 19.9755 4.57752C19.6511 4.70882 19.336 4.87164 19.0353 5.06465C18.9316 5.13162 18.8279 5.20121 18.7268 5.27474C18.497 5.44412 18.2764 5.6332 18.0676 5.84197L17.9665 5.94307L17.7065 6.20306L16.9936 6.91603L16.7336 7.17601L16.0547 7.85485L15.7948 8.11484L15.0477 8.86195L14.7877 9.12193L9.11405 14.7956L8.85406 15.0555L9.11405 15.3155L9.37403 15.0555L15.0477 9.38191L15.3076 9.12193L16.0547 8.37482L16.3147 8.11484L16.9936 7.436L17.2535 7.17601L17.9665 6.46304L18.2265 6.20306L18.3276 6.10195C18.5364 5.89318 18.7583 5.70673 18.9907 5.53866C19.0931 5.46513 19.1968 5.39685 19.3019 5.3312C19.6078 5.14213 19.9295 4.98587 20.2604 4.86245C20.3891 4.81518 20.5191 4.77185 20.6504 4.73377C22.4715 4.21381 24.5159 4.66943 25.9471 6.10064C27.3797 7.53316 27.834 9.57624 27.314 11.3974C27.2759 11.5287 27.2339 11.6587 27.1853 11.7874L27.1867 11.7887Z" fill="#181817"/>
</svg>