<svg width="125" height="51" viewBox="0 0 125 51" fill="none" xmlns="http://www.w3.org/2000/svg">
<g id="Logo BWI">
<g id="Logo BWI_2">
<g id="Group">
<path id="Vector" d="M54.7723 18.1239C56.5387 18.5441 57.975 19.4257 59.0843 20.7734C60.1921 22.1211 60.7468 23.9028 60.7468 26.1184C60.7468 28.7833 59.9614 30.8201 58.3891 32.2259C56.8167 33.6332 54.8777 34.3361 52.5735 34.3361H48.3516C48.6511 33.7371 48.8008 33.0938 48.8008 32.4047V4.82862C48.8008 4.13949 48.6511 3.4962 48.3516 2.89722H52.0799C54.265 2.89722 56.1291 3.56343 57.6709 4.89586C59.2127 6.22828 59.9843 8.15205 59.9843 10.6672C59.9843 12.6429 59.5045 14.2672 58.5465 15.54C57.5884 16.8128 56.3308 17.6731 54.7738 18.1223L54.7723 18.1239ZM50.9538 17.8992H51.5833C53.4994 17.8992 54.9892 17.2483 56.0527 15.9449C57.1147 14.643 57.6465 12.8843 57.6465 10.6672C57.6465 8.45001 57.1147 6.70808 56.0527 5.43525C54.9892 4.16241 53.4994 3.52676 51.5833 3.52676H50.9538V17.8992ZM50.9538 33.7081H52.0769C54.0831 33.7081 55.6402 33.0281 56.748 31.6651C57.8558 30.3036 58.4089 28.4532 58.4089 26.1184C58.4089 23.7836 57.8543 21.9347 56.748 20.5717C55.6402 19.2103 54.0831 18.5288 52.0769 18.5288H50.9538V33.7096V33.7081Z" fill="#181817"/>
<path id="Vector_2" d="M85.1339 29.7109L88.6376 34.3361C86.9308 34.3361 85.6427 33.7524 84.7748 32.585L83.8763 31.3718C81.7493 33.5874 79.0554 34.6952 75.7916 34.6952C72.5278 34.6952 69.976 33.7005 67.8643 31.708C65.7541 29.717 64.6982 27.1942 64.6982 24.1397C64.6982 21.9547 65.3339 19.9927 66.6067 18.2569C67.8796 16.5211 69.5634 15.3827 71.6599 14.8433C70.3427 12.5375 69.6841 10.2776 69.6841 8.06197C69.6841 6.32615 70.2235 4.97844 71.3008 4.02038C72.378 3.06231 73.6952 2.58252 75.2537 2.58252C76.8123 2.58252 78.2028 3.04704 79.3412 3.97454C80.478 4.90357 81.048 6.236 81.048 7.97182V12.9119H78.4427C78.7422 12.3129 78.8919 11.6696 78.8919 10.9805V7.65705C78.8919 6.01138 78.5329 4.85773 77.8147 4.19916C77.0965 3.54058 76.2424 3.21053 75.2553 3.21053C72.9785 3.21053 71.8417 4.72327 71.8417 7.7472C71.8417 10.7711 73.0993 13.7202 75.6144 17.0436L84.732 29.1699C85.5999 27.6129 86.0339 25.981 86.0339 24.2742C86.0339 22.8073 85.6595 21.4306 84.9108 20.1424C84.1621 18.8559 83.233 17.8229 82.1268 17.0436L83.204 15.9205C84.2812 16.7594 85.1415 17.8749 85.7863 19.2669C86.4296 20.6589 86.752 22.164 86.752 23.7806C86.752 25.9963 86.2127 27.9735 85.1354 29.7093L85.1339 29.7109ZM75.7916 34.0672C78.9057 34.0672 81.4651 32.99 83.4714 30.8339L74.7128 19.3372C73.4553 17.7205 72.4972 16.3285 71.8386 15.1611C70.222 15.8793 69.0164 17.0329 68.2234 18.619C67.4303 20.2066 67.033 22.0479 67.033 24.1428C67.033 26.9879 67.7741 29.3533 69.2563 31.2389C70.7385 33.126 72.9159 34.0687 75.7916 34.0687V34.0672Z" fill="#181817"/>
<path id="Vector_3" d="M113.833 2.89874L108.444 33.349C108.294 34.1283 107.785 34.5164 106.917 34.5164C106.049 34.5164 105.525 34.0671 105.345 33.1687L101.797 13.902L98.339 33.349C98.1893 34.1283 97.6805 34.5164 96.8125 34.5164C95.9446 34.5164 95.4205 34.0671 95.2402 33.1687L90.0297 4.87447C89.8799 4.03711 89.6416 3.37701 89.3115 2.89874H92.4103C92.1414 3.52676 92.0803 4.18686 92.23 4.87447L97.5292 33.5278C97.5292 33.5583 97.5445 33.5721 97.5735 33.5721C97.6025 33.5721 97.6178 33.5568 97.6178 33.5278L101.435 12.0149L99.7723 2.89722H101.973L107.631 33.5278C107.631 33.5583 107.646 33.5721 107.675 33.5721C107.704 33.5721 107.719 33.5568 107.719 33.5278L113.153 2.89722H113.827L113.833 2.89874Z" fill="#181817"/>
</g>
<g id="Group_2">
<path id="Vector_4" d="M48.3496 50.7118V45.4051C48.3496 45.2477 48.4764 45.1208 48.6338 45.1208C48.7912 45.1208 48.9196 45.2477 48.9196 45.4051V50.7118C48.9196 50.8692 48.7927 50.9961 48.6338 50.9961C48.4749 50.9961 48.3496 50.8692 48.3496 50.7118Z" fill="#181817"/>
<path id="Vector_5" d="M55.6626 50.9013L51.5553 46.1614V50.7134C51.5553 50.8708 51.4285 50.9976 51.2696 50.9976C51.1107 50.9976 50.9854 50.8708 50.9854 50.7134V45.4066C50.9854 45.2874 51.0587 45.182 51.1702 45.1407C51.2818 45.0995 51.4071 45.13 51.485 45.2186L55.5923 49.9585V45.4051C55.5923 45.2477 55.7191 45.1208 55.8765 45.1208C56.0339 45.1208 56.1607 45.2492 56.1607 45.4066V50.7149C56.1607 50.8341 56.0874 50.9395 55.9758 50.9808C55.9438 50.993 55.9086 50.9991 55.875 50.9991C55.794 50.9991 55.7161 50.9655 55.6611 50.9028L55.6626 50.9013Z" fill="#181817"/>
<path id="Vector_6" d="M63.0524 45.4051C63.0524 45.5624 62.9256 45.6893 62.7667 45.6893H60.8368V50.7118C60.8368 50.8692 60.71 50.9961 60.5526 50.9961C60.3952 50.9961 60.2668 50.8692 60.2668 50.7118V45.6893H58.3369C58.1796 45.6893 58.0527 45.5624 58.0527 45.4051C58.0527 45.2477 58.1796 45.1208 58.3369 45.1208H62.7651C62.9225 45.1208 63.0509 45.2477 63.0509 45.4051H63.0524Z" fill="#181817"/>
<path id="Vector_7" d="M68.7872 50.7118C68.7872 50.8692 68.6603 50.9961 68.5029 50.9961H65.2315C65.0741 50.9961 64.9473 50.8692 64.9473 50.7118V45.4051C64.9473 45.2477 65.0741 45.1208 65.2315 45.1208H68.5029C68.6603 45.1208 68.7872 45.2477 68.7872 45.4051C68.7872 45.5624 68.6603 45.6893 68.5029 45.6893H65.5172V47.7735H67.8795C68.0369 47.7735 68.1637 47.9003 68.1637 48.0577C68.1637 48.2151 68.0369 48.3419 67.8795 48.3419H65.5172V50.4261H68.5029C68.6603 50.4261 68.7872 50.5529 68.7872 50.7103V50.7118Z" fill="#181817"/>
<path id="Vector_8" d="M74.7325 50.5287C74.8348 50.6478 74.8226 50.8266 74.7034 50.9305C74.5842 51.0329 74.4039 51.0207 74.3016 50.903L72.9355 49.3063H71.4274V50.7136C71.4274 50.8709 71.3005 50.9978 71.1416 50.9978C70.9827 50.9978 70.8574 50.8709 70.8574 50.7136V45.4068C70.8574 45.2494 70.9842 45.1226 71.1416 45.1226H73.1387C74.245 45.1226 75.142 46.0592 75.142 47.2144C75.142 48.1923 74.5002 49.0129 73.6338 49.2421L74.7309 50.5302L74.7325 50.5287ZM71.4274 48.7363H73.1403C73.9318 48.7363 74.5735 48.0548 74.5735 47.2144C74.5735 46.374 73.9318 45.6925 73.1403 45.6925H71.4274V48.7378V48.7363Z" fill="#181817"/>
<path id="Vector_9" d="M81.769 50.9013L77.6617 46.1614V50.7134C77.6617 50.8708 77.5349 50.9976 77.376 50.9976C77.2171 50.9976 77.0918 50.8708 77.0918 50.7134V45.4066C77.0918 45.2874 77.1651 45.182 77.2767 45.1407C77.3882 45.0995 77.5135 45.13 77.5915 45.2186L81.6988 49.9585V45.4051C81.6988 45.2477 81.8256 45.1208 81.983 45.1208C82.1404 45.1208 82.2672 45.2492 82.2672 45.4066V50.7149C82.2672 50.8341 82.1938 50.9395 82.0823 50.9808C82.0502 50.993 82.0151 50.9991 81.9814 50.9991C81.9005 50.9991 81.8225 50.9655 81.7675 50.9028L81.769 50.9013Z" fill="#181817"/>
<path id="Vector_10" d="M89.0188 50.9747C88.9821 50.9899 88.9439 50.9976 88.9073 50.9976C88.7972 50.9976 88.6918 50.9334 88.646 50.8249L88.0531 49.413H85.2996L84.7067 50.8249C84.6441 50.9701 84.4775 51.0373 84.3324 50.9747C84.1872 50.912 84.12 50.7455 84.1826 50.6003L86.4135 45.2935C86.4578 45.1881 86.5617 45.1208 86.6748 45.1208C86.7879 45.1208 86.8918 45.1881 86.9361 45.2935L89.167 50.6003C89.2297 50.7455 89.1624 50.912 89.0173 50.9747H89.0188ZM87.8132 48.8431L86.6748 46.1293L85.5365 48.8431H87.8117H87.8132Z" fill="#181817"/>
<path id="Vector_11" d="M95.0348 45.4051C95.0348 45.5624 94.908 45.6893 94.7491 45.6893H92.8192V50.7118C92.8192 50.8692 92.6924 50.9961 92.535 50.9961C92.3776 50.9961 92.2492 50.8692 92.2492 50.7118V45.6893H90.3194C90.162 45.6893 90.0352 45.5624 90.0352 45.4051C90.0352 45.2477 90.162 45.1208 90.3194 45.1208H94.7475C94.9049 45.1208 95.0333 45.2477 95.0333 45.4051H95.0348Z" fill="#181817"/>
<path id="Vector_12" d="M96.9277 50.7118V45.4051C96.9277 45.2477 97.0546 45.1208 97.2119 45.1208C97.3693 45.1208 97.4977 45.2477 97.4977 45.4051V50.7118C97.4977 50.8692 97.3709 50.9961 97.2119 50.9961C97.053 50.9961 96.9277 50.8692 96.9277 50.7118Z" fill="#181817"/>
<path id="Vector_13" d="M99.4736 48.0592C99.4736 46.4365 100.73 45.1208 102.279 45.1208C103.828 45.1208 105.084 46.4365 105.084 48.0592C105.084 49.682 103.828 50.9976 102.279 50.9976C100.73 50.9976 99.4736 49.682 99.4736 48.0592ZM104.513 48.0592C104.513 46.7512 103.512 45.6908 102.278 45.6908C101.043 45.6908 100.042 46.7512 100.042 48.0592C100.042 49.3672 101.043 50.4276 102.278 50.4276C103.512 50.4276 104.513 49.3672 104.513 48.0592Z" fill="#181817"/>
<path id="Vector_14" d="M111.738 50.9013L107.63 46.1614V50.7134C107.63 50.8708 107.504 50.9976 107.345 50.9976C107.186 50.9976 107.061 50.8708 107.061 50.7134V45.4066C107.061 45.2874 107.134 45.182 107.245 45.1407C107.357 45.0995 107.482 45.13 107.56 45.2186L111.667 49.9585V45.4051C111.667 45.2477 111.794 45.1208 111.952 45.1208C112.109 45.1208 112.236 45.2492 112.236 45.4066V50.7149C112.236 50.8341 112.163 50.9395 112.051 50.9808C112.019 50.993 111.984 50.9991 111.95 50.9991C111.869 50.9991 111.791 50.9655 111.736 50.9028L111.738 50.9013Z" fill="#181817"/>
<path id="Vector_15" d="M118.989 50.9747C118.952 50.9899 118.914 50.9976 118.877 50.9976C118.767 50.9976 118.662 50.9334 118.616 50.8249L118.023 49.413H115.269L114.676 50.8249C114.614 50.9701 114.447 51.0373 114.302 50.9747C114.157 50.912 114.09 50.7455 114.152 50.6003L116.383 45.2935C116.428 45.1881 116.531 45.1208 116.645 45.1208C116.758 45.1208 116.862 45.1881 116.906 45.2935L119.137 50.6003C119.199 50.7455 119.132 50.912 118.987 50.9747H118.989ZM117.783 48.8431L116.645 46.1293L115.506 48.8431H117.781H117.783Z" fill="#181817"/>
<path id="Vector_16" d="M124.808 50.7118C124.808 50.8692 124.681 50.9961 124.522 50.9961H121.341C121.183 50.9961 121.057 50.8692 121.057 50.7118V45.4051C121.057 45.2477 121.183 45.1208 121.341 45.1208C121.498 45.1208 121.627 45.2477 121.627 45.4051V50.4276H124.524C124.681 50.4276 124.809 50.5545 124.809 50.7118H124.808Z" fill="#181817"/>
</g>
<g id="Group_3">
<g id="Group_4">
<path id="Vector_17" d="M24.0615 31.7174C23.9072 31.6746 23.7559 31.6257 23.6046 31.5707L23.273 31.9022C23.4197 31.9603 23.5679 32.0123 23.7177 32.0612C26.0296 32.7977 28.6654 32.2522 30.4975 30.4216C32.328 28.591 32.8735 25.9552 32.137 23.6418C32.0897 23.4921 32.0377 23.3438 31.9781 23.1972C31.8269 22.8182 31.6389 22.4515 31.4158 22.0985C31.3379 21.9763 31.2584 21.8556 31.1729 21.7379C30.9712 21.4613 30.7465 21.1985 30.4975 20.9495L30.3997 20.8517L30.0971 20.5491L29.2674 19.7194L28.9649 19.4169L28.155 18.607L27.8525 18.3045L27.0014 17.4534L26.6988 17.1508L20.0963 10.5483L19.7938 10.2457L19.4912 10.5483L19.7938 10.8508L26.3963 17.4534L26.6988 17.7559L27.5499 18.607L27.8525 18.9096L28.6623 19.7194L28.9649 20.022L29.7946 20.8517L30.0971 21.1542L30.1949 21.252C30.444 21.5011 30.6671 21.7669 30.8657 22.045C30.9513 22.1642 31.0308 22.2849 31.1056 22.4087C31.3257 22.7663 31.506 23.1422 31.6465 23.5287C31.7016 23.68 31.7505 23.8313 31.7932 23.9856C32.3846 26.0973 31.8528 28.4612 30.1949 30.1206C28.537 31.7785 26.1732 32.3118 24.06 31.7189L24.0615 31.7174Z" fill="#181817"/>
<path id="Vector_18" d="M35.4745 19.6277C35.2606 19.2854 35.0268 18.9523 34.7732 18.6299C34.683 18.5153 34.5913 18.4022 34.4966 18.2907C34.2934 18.0523 34.0794 17.8185 33.8548 17.5924L33.6822 17.4197L33.3781 17.1156L32.5362 16.2737L32.229 15.9666L31.4024 15.1399L31.0922 14.8297L30.2136 13.9511L29.8973 13.6348L23.6156 7.35316L23.2993 7.03687C23.171 7.10715 23.0457 7.18203 22.9219 7.26301L23.2306 7.57167L29.6772 14.0184L29.9859 14.327L30.8492 15.1903L31.1548 15.4959L31.9723 16.3134L32.2764 16.6175L33.1122 17.4533L33.4163 17.7574L33.5508 17.8919C33.7876 18.1287 34.0107 18.3732 34.2216 18.6253C34.3148 18.7369 34.4064 18.8499 34.4951 18.9645C34.7441 19.2869 34.9718 19.6216 35.1811 19.9639C35.2591 20.0922 35.3339 20.2206 35.4058 20.3504C37.739 24.5616 37.1217 29.9815 33.5523 33.5509C29.9828 37.1204 24.563 37.7377 20.3518 35.4044C20.2219 35.3326 20.0935 35.2562 19.9652 35.1798C19.8537 35.2806 19.7406 35.3769 19.626 35.4732C19.7543 35.5526 19.8842 35.6306 20.0141 35.7054C24.4056 38.2144 30.1097 37.5986 33.8533 33.855C37.5969 30.1114 38.2142 24.4058 35.7037 20.0158C35.6288 19.8859 35.5525 19.756 35.4715 19.6277H35.4745Z" fill="#181817"/>
<path id="Vector_19" d="M21.1541 34.0215L20.8408 34.3347C20.9707 34.4081 21.1021 34.4783 21.2335 34.5456C24.9496 36.4342 29.6193 35.8276 32.7226 32.7242C35.826 29.6208 36.4327 24.9512 34.544 21.2351C34.4768 21.1021 34.4065 20.9722 34.3332 20.8424C34.1376 20.497 33.9191 20.1609 33.6792 19.8369C33.5936 19.7223 33.5065 19.6093 33.4164 19.4962C33.2009 19.2303 32.9702 18.9736 32.7226 18.7261L32.6249 18.6283L32.3223 18.3257L31.4926 17.496L31.19 17.1935L30.3802 16.3836L30.0777 16.0811L29.2266 15.23L28.924 14.9274L22.3215 8.32489L22.0189 8.02234L21.7164 8.32489L22.0189 8.62743L28.6215 15.23L28.924 15.5325L29.7751 16.3836L30.0777 16.6862L30.8875 17.496L31.19 17.7986L32.0198 18.6283L32.3223 18.9308L32.4201 19.0286C32.6676 19.2761 32.8984 19.5344 33.1123 19.8003C33.2024 19.9133 33.2895 20.0264 33.3751 20.1425C33.6135 20.4695 33.8289 20.8087 34.0215 21.1571C34.0933 21.2885 34.162 21.42 34.2277 21.5544C35.959 25.0902 35.3569 29.4894 32.4216 32.4247C29.4863 35.36 25.0872 35.962 21.5513 34.2308C21.4184 34.1651 21.2855 34.0963 21.1541 34.0245V34.0215Z" fill="#181817"/>
<path id="Vector_20" d="M22.3427 32.8327L22.0234 33.1521C22.1594 33.2193 22.2969 33.2835 22.4359 33.3431C25.466 34.6465 29.1195 34.0628 31.5903 31.592C34.0611 29.1212 34.6448 25.4677 33.3414 22.4377C33.2818 22.2986 33.2176 22.1611 33.1504 22.0251C32.9716 21.666 32.7668 21.3176 32.533 20.983C32.4505 20.8654 32.365 20.7492 32.2763 20.6361C32.067 20.3657 31.8378 20.1059 31.5903 19.8584L31.4925 19.7606L31.1899 19.4581L30.3602 18.6283L30.0577 18.3258L29.2478 17.5159L28.9453 17.2134L28.0942 16.3623L27.7916 16.0598L21.1891 9.45721L20.8865 9.15466L20.584 9.45721L20.8865 9.75976L27.4891 16.3623L27.7916 16.6648L28.6427 17.5159L28.9453 17.8185L29.7551 18.6283L30.0577 18.9309L30.8874 19.7606L31.1899 20.0631L31.2877 20.1609C31.5352 20.4085 31.7629 20.6698 31.9723 20.9418C32.0609 21.0564 32.1449 21.174 32.2259 21.2917C32.4566 21.6309 32.6583 21.9823 32.831 22.346C32.8967 22.485 32.9578 22.6241 33.0159 22.7647C34.1665 25.6068 33.5904 28.9898 31.2892 31.291C28.9881 33.5922 25.605 34.1682 22.7629 33.0176C22.6223 32.9611 22.4818 32.8984 22.3443 32.8327H22.3427Z" fill="#181817"/>
</g>
<g id="Group_5">
<path id="Vector_21" d="M13.2905 5.43692C13.4433 5.48123 13.593 5.53319 13.7428 5.5882L14.0728 5.25814C13.9277 5.19855 13.7795 5.14507 13.6312 5.09618C11.3056 4.33217 8.64075 4.87156 6.79491 6.7174C4.94907 8.56324 4.40968 11.2281 5.17369 13.5537C5.22259 13.7019 5.27607 13.8502 5.33566 13.9953C5.48999 14.3712 5.67946 14.7364 5.90561 15.0863C5.98354 15.207 6.06605 15.3262 6.15315 15.4439C6.34568 15.7036 6.5596 15.9542 6.79644 16.1895L6.93243 16.3255L7.23498 16.6281L8.06469 17.4578L8.36723 17.7603L9.21681 18.6099L9.51936 18.9125L10.3292 19.7223L10.6317 20.0249L17.2343 26.6274L17.5368 26.9299L17.8394 26.6274L17.5368 26.3249L10.9343 19.7223L10.6317 19.4198L9.8219 18.6099L9.51936 18.3074L8.66978 17.4578L8.36723 17.1552L7.53752 16.3255L7.23498 16.023L7.09899 15.887C6.86214 15.6502 6.64975 15.3996 6.45875 15.1383C6.37318 15.0206 6.29219 14.8999 6.21579 14.7777C5.99423 14.4232 5.81087 14.0503 5.66724 13.6668C5.6107 13.5171 5.56028 13.3673 5.51597 13.2145C4.89712 11.0875 5.42428 8.69464 7.09899 7.01994C8.77369 5.34524 11.1666 4.81808 13.2935 5.43692H13.2905Z" fill="#181817"/>
<path id="Vector_22" d="M1.76972 17.6366C1.98517 17.9773 2.22048 18.3089 2.47566 18.6298C2.56581 18.7429 2.65749 18.8559 2.75223 18.9675C2.94476 19.1921 3.14646 19.4106 3.36038 19.623L3.56971 19.8323L3.87379 20.1364L4.71572 20.9784L5.02285 21.2855L5.89076 22.1534L6.20095 22.4636L7.03983 23.3025L7.35613 23.6188L13.6378 29.9004L13.9541 30.2167C14.0824 30.1464 14.2077 30.0716 14.3315 29.9906L14.0228 29.6819L7.57616 23.2352L7.2675 22.9266L6.4439 22.103L6.1383 21.7974L5.27956 20.9386L4.97548 20.6346L4.13966 19.7987L3.83559 19.4947L3.66445 19.3235C3.44136 19.1004 3.22897 18.8682 3.0288 18.6313C2.93559 18.5198 2.84391 18.4082 2.75528 18.2936C2.50469 17.9728 2.27549 17.6412 2.06462 17.2989C1.98669 17.1721 1.91029 17.0437 1.83848 16.9138C-0.526887 12.6965 0.0812613 7.24764 3.66445 3.66445C7.24764 0.0812608 12.6965 -0.526888 16.9138 1.83848C17.0437 1.91182 17.1721 1.98669 17.2989 2.06462C17.4104 1.9653 17.5235 1.86751 17.6381 1.77277C17.5113 1.69179 17.3814 1.61386 17.2515 1.53899C12.8539 -1.00363 7.12081 -0.395478 3.3619 3.3619C-0.395478 7.11929 -1.00363 12.8539 1.53898 17.2515C1.61386 17.3814 1.69179 17.5098 1.77277 17.6381L1.76972 17.6366Z" fill="#181817"/>
<path id="Vector_23" d="M16.1091 3.22132L16.4223 2.90808C16.294 2.83474 16.1626 2.76292 16.0312 2.69569C12.3059 0.776504 7.60875 1.37396 4.49161 4.49263C1.37446 7.60978 0.775482 12.3069 2.69467 16.0322C2.7619 16.1636 2.83371 16.2935 2.90706 16.4234C3.10417 16.7672 3.32421 17.1018 3.56563 17.4242C3.6512 17.5388 3.73982 17.6519 3.82998 17.7634C4.03626 18.014 4.25629 18.2585 4.49008 18.4923L4.62607 18.6283L4.92862 18.9308L5.75833 19.7605L6.06088 20.0631L6.91045 20.9126L7.213 21.2152L8.02284 22.025L8.32539 22.3276L14.9279 28.9301L15.2305 29.2327L15.533 28.9301L15.2305 28.6276L8.62794 22.025L8.32539 21.7225L7.51554 20.9126L7.213 20.6101L6.36342 19.7605L6.06088 19.458L5.23116 18.6283L4.92862 18.3257L4.79263 18.1897C4.55884 17.9559 4.33881 17.7115 4.13405 17.4593C4.0439 17.3478 3.95528 17.2347 3.87123 17.1186C3.63134 16.7931 3.41283 16.457 3.2203 16.1101C3.14696 15.9802 3.0782 15.8473 3.01249 15.7144C1.25069 12.1694 1.84356 7.74424 4.79415 4.79365C7.74322 1.84459 12.1699 1.25019 15.7149 3.01199C15.8478 3.07769 15.9792 3.14798 16.1106 3.2198L16.1091 3.22132Z" fill="#181817"/>
<path id="Vector_24" d="M14.923 4.40861L15.2424 4.08925C15.1064 4.02049 14.9704 3.95631 14.8329 3.89519C11.7921 2.56277 8.11116 3.13883 5.62508 5.62338C3.14054 8.10792 2.56448 11.7904 3.8969 14.8312C3.95802 14.9687 4.0222 15.1062 4.09096 15.2407C4.27127 15.5982 4.47908 15.9436 4.71439 16.2767C4.7969 16.3943 4.88247 16.5089 4.97262 16.622C5.17279 16.8772 5.3913 17.1232 5.62508 17.357L5.76108 17.493L6.06362 17.7955L6.89333 18.6252L7.19588 18.9278L8.04545 19.7774L8.348 20.0799L9.15785 20.8897L9.4604 21.1923L16.0629 27.7948L16.3655 28.0974L16.668 27.7948L16.3655 27.4923L9.76294 20.8897L9.4604 20.5872L8.65055 19.7774L8.348 19.4748L7.49843 18.6252L7.19588 18.3227L6.36617 17.493L6.06362 17.1904L5.92763 17.0544C5.69232 16.8191 5.47534 16.5731 5.2767 16.3164C5.18807 16.2018 5.1025 16.0857 5.02152 15.968C4.78773 15.6319 4.58451 15.2804 4.41031 14.9198C4.34461 14.7823 4.28196 14.6432 4.2239 14.5027C3.0458 11.6499 3.61269 8.23781 5.92763 5.92287C8.24257 3.60793 11.6546 3.03951 14.5074 4.21913C14.648 4.2772 14.787 4.33984 14.9246 4.40555L14.923 4.40861Z" fill="#181817"/>
</g>
<g id="Group_6">
<path id="Vector_25" d="M19.8335 33.6806L20.1391 33.375L20.9811 32.533L21.2882 32.2259L22.176 31.3381L22.4861 31.0279L23.3067 30.2074L23.623 29.8911L29.8924 23.6217L30.2087 23.3054C30.14 23.177 30.0651 23.0502 29.9841 22.9264L29.6739 23.2366L23.2364 29.6741L22.9262 29.9843L22.121 30.7896L21.8138 31.0967L20.9367 31.9738L20.6327 32.2779L19.7968 33.1137L19.4928 33.4178L19.3369 33.5736C19.1077 33.8028 18.8693 34.0198 18.6264 34.2245C18.5148 34.3178 18.4033 34.4094 18.2887 34.4981C17.9663 34.7487 17.6332 34.9763 17.2909 35.1857C17.1625 35.2636 17.0342 35.34 16.9043 35.4118C12.6901 37.7619 7.25491 37.1492 3.67784 33.5721C0.102286 29.9965 -0.511973 24.5614 1.83658 20.3471C1.9084 20.2173 1.9848 20.0889 2.06273 19.9621C1.96188 19.8505 1.86561 19.7375 1.76935 19.6244C1.68836 19.7527 1.61196 19.8811 1.53709 20.0125C-0.987186 24.4071 -0.374453 30.1249 3.37529 33.8746C7.12656 37.6259 12.8474 38.2371 17.242 35.7098C17.3719 35.6349 17.5018 35.557 17.6286 35.4775C17.9709 35.2621 18.3024 35.0283 18.6249 34.7731C18.7395 34.683 18.8525 34.5913 18.9625 34.4965C19.1933 34.2994 19.4179 34.0916 19.6364 33.8746L19.8305 33.6806H19.8335Z" fill="#181817"/>
<path id="Vector_26" d="M2.7019 21.2288C0.797993 24.9495 1.40003 29.6328 4.51106 32.7439C7.6221 35.8549 12.3039 36.4569 16.0262 34.553C16.1576 34.4858 16.289 34.4155 16.4173 34.3406C16.7627 34.1435 17.0973 33.925 17.4212 33.6836C17.5358 33.598 17.6489 33.5109 17.7605 33.4192C18.0187 33.2084 18.2693 32.9822 18.5092 32.7423L18.6268 32.6247L18.9294 32.3221L19.7591 31.4924L20.0616 31.1899L20.9311 30.3204L21.2336 30.0179L22.0251 29.2264L22.3277 28.9238L28.9302 22.3213L29.2328 22.0187L28.9302 21.7162L28.6277 22.0187L22.0251 28.6213L21.7226 28.9238L20.9311 29.7153L20.6285 30.0179L19.7591 30.8873L19.4566 31.1899L18.6268 32.0196L18.3243 32.3221L18.2066 32.4398C17.9652 32.6812 17.7146 32.9058 17.4549 33.1152C17.3433 33.2053 17.2287 33.2939 17.1141 33.378C16.7886 33.6179 16.4494 33.8333 16.1026 34.0259C15.9712 34.0977 15.8397 34.168 15.7068 34.2337C12.1664 35.9802 7.75351 35.3827 4.81208 32.4398C1.86913 29.4968 1.27168 25.0855 3.0182 21.5451C3.0839 21.4121 3.15266 21.2792 3.22601 21.1493L2.91276 20.8361C2.83942 20.9659 2.7676 21.0958 2.70037 21.2272L2.7019 21.2288Z" fill="#181817"/>
<path id="Vector_27" d="M4.41442 22.3381L4.09507 22.0188C4.02631 22.1548 3.96213 22.2908 3.90254 22.4298C2.58386 25.4645 3.16451 29.1332 5.64295 31.6116C8.12138 34.0901 11.7886 34.6692 14.8248 33.3521C14.9638 33.2925 15.0998 33.2268 15.2358 33.1595C15.5934 32.9807 15.9417 32.7729 16.2749 32.5391C16.3925 32.4566 16.5071 32.3711 16.6217 32.2824C16.8845 32.0777 17.1367 31.8546 17.3781 31.6132L17.4957 31.4955L17.7983 31.193L18.628 30.3633L18.9305 30.0607L19.8 29.1913L20.1025 28.8887L20.894 28.0972L21.1966 27.7947L27.7991 21.1921L28.1017 20.8896L27.7991 20.587L27.4966 20.8896L20.894 27.4921L20.5915 27.7947L19.8 28.5862L19.4974 28.8887L18.628 29.7582L18.3254 30.0607L17.4957 30.8904L17.1932 31.193L17.0755 31.3106C16.8341 31.5521 16.5805 31.7751 16.3161 31.9784C16.2015 32.067 16.0854 32.151 15.9662 32.232C15.6285 32.4643 15.2771 32.6675 14.9149 32.8402C14.7774 32.9059 14.6384 32.9685 14.4962 33.0266C11.648 34.1909 8.25126 33.6195 5.94244 31.3106C3.63361 29.0018 3.06213 25.605 4.22648 22.7568C4.28454 22.6162 4.34566 22.4772 4.4129 22.3381H4.41442Z" fill="#181817"/>
<path id="Vector_28" d="M5.65488 23.5789L5.3233 23.2473C5.26371 23.394 5.21176 23.5422 5.16439 23.692C4.41414 26.0115 4.95658 28.6611 6.79478 30.4993C8.63298 32.3375 11.2841 32.8799 13.6021 32.1297C13.7518 32.0808 13.9 32.0288 14.0467 31.9708C14.4241 31.818 14.7909 31.6285 15.1408 31.4039C15.2615 31.3259 15.3822 31.245 15.4999 31.1594C15.7673 30.9623 16.024 30.7422 16.2669 30.4993L16.3846 30.3816L16.6871 30.0791L17.5168 29.2494L17.8194 28.9468L18.6888 28.0774L18.9914 27.7748L19.7829 26.9833L20.0854 26.6808L26.688 20.0782L26.9905 19.7757L26.688 19.4731L26.3854 19.7757L19.7829 26.3782L19.4803 26.6808L18.6888 27.4723L18.3863 27.7748L17.5168 28.6443L17.2143 28.9468L16.3846 29.7765L16.082 30.0791L15.9644 30.1967C15.7214 30.4397 15.4632 30.6567 15.1927 30.8523C15.0735 30.9378 14.9528 31.0173 14.8306 31.0937C14.4746 31.3137 14.1002 31.4955 13.7151 31.6392C13.5654 31.6942 13.4141 31.7446 13.2613 31.7889C11.142 32.394 8.76286 31.8638 7.09732 30.1983C5.43026 28.5312 4.90157 26.1536 5.50666 24.0343C5.55097 23.8815 5.59987 23.7302 5.65641 23.5804L5.65488 23.5789Z" fill="#181817"/>
</g>
<g id="Group_7">
<path id="Vector_29" d="M17.4222 3.56818L17.1181 3.87226L16.2777 4.71266L15.9721 5.01827L15.1653 5.82506L14.8551 6.13524L13.9582 7.03219L13.6434 7.34696L7.34797 13.6424L7.0332 13.9571C7.10349 14.084 7.17989 14.2093 7.2624 14.333L7.57106 14.0244L14.0254 7.57005L14.334 7.26139L15.2172 6.3782L15.5228 6.07259L16.322 5.27344L16.6261 4.96937L17.4619 4.13355L17.7644 3.831L17.9157 3.67973C18.1464 3.449 18.3848 3.23202 18.6308 3.02574C18.7424 2.93253 18.8539 2.84085 18.9685 2.75222C19.2909 2.50316 19.624 2.27395 19.9648 2.06462C20.0916 1.98669 20.22 1.91029 20.3498 1.83847C24.5641 -0.510084 29.9977 0.102649 33.5748 3.67973C37.1519 7.2568 37.7646 12.6919 35.4145 16.9062C35.3427 17.0361 35.2663 17.1644 35.1884 17.2928C35.2877 17.4043 35.3855 17.5174 35.4802 17.632C35.5612 17.5037 35.6376 17.3753 35.7125 17.2454C38.2398 12.8509 37.6286 7.12998 33.8773 3.37871C30.1276 -0.371034 24.4098 -0.983768 20.0152 1.54051C19.8853 1.61538 19.7554 1.69178 19.6271 1.77277C19.2863 1.98669 18.9532 2.222 18.6323 2.47565C18.5177 2.5658 18.4062 2.65749 18.2947 2.75222C18.0624 2.95086 17.8347 3.15867 17.6147 3.37871L17.4267 3.56665L17.4222 3.56818Z" fill="#181817"/>
<path id="Vector_30" d="M34.5499 16.026C36.4538 12.3053 35.8517 7.62197 32.7407 4.51094C29.6297 1.39991 24.9478 0.797871 21.2256 2.70177C21.0942 2.76901 20.9628 2.8393 20.8344 2.91417C20.4891 3.11128 20.1545 3.32979 19.8305 3.57121C19.7159 3.65678 19.6028 3.74388 19.4913 3.83556C19.2331 4.04643 18.9825 4.27257 18.7426 4.51247L18.6249 4.63013L18.3224 4.93267L17.4927 5.76238L17.1901 6.06493L16.4001 6.85491L16.0976 7.15746L15.2281 8.0269L14.9256 8.32944L8.32305 14.932L8.02051 15.2345L8.32305 15.5371L8.6256 15.2345L15.2281 8.63199L15.5307 8.32944L16.4001 7.46001L16.7027 7.15746L17.4927 6.36747L17.7952 6.06493L18.6249 5.23522L18.9275 4.93267L19.0451 4.81502C19.2865 4.57359 19.5371 4.34897 19.7969 4.13963C19.9084 4.04948 20.023 3.96086 20.1376 3.87682C20.4631 3.63692 20.8023 3.42147 21.1492 3.22894C21.2806 3.15712 21.412 3.08683 21.5449 3.02113C25.0853 1.27461 29.4982 1.87206 32.4397 4.81502C35.3826 7.75797 35.9801 12.1693 34.2336 15.7097C34.1679 15.8427 34.0991 15.9756 34.0257 16.1055L34.339 16.4187C34.4123 16.2889 34.4826 16.159 34.5514 16.0276L34.5499 16.026Z" fill="#181817"/>
<path id="Vector_31" d="M32.8371 14.9166L33.1564 15.236C33.2252 15.1 33.2894 14.964 33.349 14.8249C34.6676 11.7903 34.087 8.12156 31.6086 5.64312C29.1301 3.16469 25.4629 2.58557 22.4267 3.90272C22.2877 3.96231 22.1517 4.02801 22.0157 4.09524C21.6581 4.27402 21.3098 4.48183 20.9767 4.71562C20.859 4.79813 20.7444 4.8837 20.6298 4.97232C20.367 5.17708 20.1149 5.40017 19.8734 5.64159L19.7558 5.75925L19.4532 6.0618L18.6235 6.89151L18.321 7.19405L17.531 7.98404L17.2284 8.28658L16.359 9.15602L16.0565 9.45857L9.45391 16.0611L9.15137 16.3637L9.45391 16.6662L9.75646 16.3637L16.359 9.76111L16.6615 9.45857L17.531 8.58913L17.8335 8.28658L18.6235 7.4966L18.9261 7.19405L19.7558 6.36434L20.0583 6.0618L20.176 5.94414C20.4174 5.70271 20.6711 5.47962 20.9354 5.2764C21.05 5.18777 21.1661 5.10373 21.2853 5.02275C21.623 4.79049 21.9744 4.58726 22.3366 4.4146C22.4741 4.34889 22.6132 4.28624 22.7553 4.22818C25.6035 3.06384 29.0002 3.63531 31.3091 5.94414C33.6179 8.25297 34.1894 11.6497 33.025 14.498C32.967 14.6385 32.9058 14.7776 32.8386 14.9166H32.8371Z" fill="#181817"/>
<path id="Vector_32" d="M31.6368 13.7172L31.9684 14.0488C32.028 13.9021 32.08 13.7539 32.1273 13.6041C32.8776 11.2846 32.3351 8.63505 30.4969 6.79686C28.6587 4.95866 26.0076 4.41621 23.6897 5.16646C23.5399 5.21536 23.3917 5.26731 23.245 5.32538C22.8676 5.47818 22.5009 5.66765 22.1509 5.89227C22.0302 5.9702 21.9095 6.05118 21.7919 6.13675C21.5245 6.33387 21.2678 6.5539 21.0248 6.79686L20.9071 6.91451L20.6046 7.21706L19.7749 8.04677L19.4723 8.34931L18.6824 9.1393L18.3798 9.44184L17.5104 10.3113L17.2078 10.6138L10.6053 17.2164L10.3027 17.5189L10.6053 17.8215L10.9078 17.5189L17.5104 10.9164L17.8129 10.6138L18.6824 9.74439L18.9849 9.44184L19.7749 8.65186L20.0774 8.34931L20.9071 7.5196L21.2097 7.21706L21.3273 7.0994C21.5703 6.85645 21.8285 6.63947 22.099 6.44388C22.2182 6.35831 22.3389 6.27886 22.4611 6.20246C22.8172 5.98242 23.1915 5.80059 23.5766 5.65696C23.7263 5.60195 23.8776 5.55152 24.0304 5.50721C26.1498 4.90212 28.5289 5.43234 30.1944 7.09787C31.8615 8.76494 32.3902 11.1425 31.7851 13.2619C31.7407 13.4147 31.6919 13.5659 31.6353 13.7157L31.6368 13.7172Z" fill="#181817"/>
</g>
</g>
</g>
</g>
</svg>
